<svg id="painel" xmlns="http://www.w3.org/2000/svg" width="19.992" height="19.849" viewBox="0 0 19.992 19.849">
  <g id="Grupo_966" data-name="Grupo 966">
    <path id="Caminho_278" data-name="Caminho 278" d="M19.629,8.741,10.856.44a1.3,1.3,0,0,0-1.721,0L.362,8.741A1.109,1.109,0,0,0,.081,9.978a1.212,1.212,0,0,0,1.141.751H3.15V18.8a1.194,1.194,0,0,0,1.22,1.162H15.621a1.194,1.194,0,0,0,1.22-1.162V10.729h1.928a1.21,1.21,0,0,0,1.141-.751A1.109,1.109,0,0,0,19.629,8.741Zm-4.045.732v9.234H4.406V9.473H1.419L9.992,1.353l8.581,8.12Z" transform="translate(0.001 -0.114)" fill="#dc1a22"/>
    <circle id="Elipse_346" data-name="Elipse 346" cx="1.963" cy="1.963" r="1.963" transform="translate(8.033 10.223)" fill="#dc1a22"/>
    <path id="Caminho_279" data-name="Caminho 279" d="M11.115,26.653h6.107A3.147,3.147,0,0,0,14.168,23.6,2.97,2.97,0,0,0,11.115,26.653Z" transform="translate(-4.167 -8.927)" fill="#dc1a22"/>
  </g>
</svg>
