<svg xmlns="http://www.w3.org/2000/svg" width="33.428" height="32.871" viewBox="0 0 33.428 32.871">
  <g id="christmas-stocking" transform="translate(10.604 -6.561) rotate(19)">
    <g id="Layer_2_34_" transform="translate(0 6.939)">
      <path id="Caminho_294" data-name="Caminho 294" d="M26.363,22.821A4.106,4.106,0,0,0,23.4,19.392a13.557,13.557,0,0,0-4.775.032c-.535.06-1.083.122-1.647.173l-1.947-5.482.56-.2a.648.648,0,0,0,.394-.827L13.951,7.371a.648.648,0,0,0-.827-.394L.431,11.484a.648.648,0,0,0-.394.827L2.068,18.03a.648.648,0,0,0,.827.394l.172-.061,2.661,7.493,0,.012,1.333,3.755a4.419,4.419,0,0,0,5.653,2.69l8.046-2.857c.184-.065.395-.134.617-.207A10.585,10.585,0,0,0,25,27.488,4.409,4.409,0,0,0,26.363,22.821ZM1.475,12.488,12.947,8.414l1.6,4.5L3.072,16.986Zm10.811,18.6a3.132,3.132,0,0,1-4-1.9L7.137,25.95c.142-.066.286-.126.434-.179a4.607,4.607,0,0,1,3.4.1,3.932,3.932,0,0,1,2.209,4.9Zm8.693-3.075c-.231.076-.448.147-.647.218l-5.7,2.025a5.214,5.214,0,0,0-.241-2.5,5.267,5.267,0,0,0-2.9-3.074,5.9,5.9,0,0,0-4.354-.132q-.221.079-.436.174l-2.413-6.8,9.519-3.38L15.921,20.5a.648.648,0,0,0,.66.429c.761-.058,1.485-.14,2.186-.219,3.8-.429,5.663-.507,6.334,2.4C25.805,26.167,23.651,27.141,20.979,28.016Z" transform="translate(0 -6.939)" fill="#fff"/>
    </g>
  </g>
</svg>
