<svg xmlns="http://www.w3.org/2000/svg" width="29.202" height="16.687" viewBox="0 0 29.202 16.687">
  <path id="XMLID_1478_" d="M27,110.833l-12.013-5.745A.893.893,0,0,0,14.6,105H11.025a.894.894,0,0,0-.894.894v.6a2.088,2.088,0,0,1-2.086,2.086H.894A.894.894,0,0,0,0,109.47V119a2.685,2.685,0,0,0,2.682,2.682H26.52A2.685,2.685,0,0,0,29.2,119v-4.678A3.893,3.893,0,0,0,27,110.833Zm.414,3.495v2H25.03v-4.45l1.2.573A2.1,2.1,0,0,1,27.414,114.327Zm-15.506-7.539H14.4l1.1.524-.93.93a.894.894,0,1,0,1.264,1.264L17.2,108.13l1.918.917-.982.982a.894.894,0,1,0,1.264,1.264l1.428-1.428,2.409,1.152v5.305H20.764L8.359,110.35A3.879,3.879,0,0,0,11.908,106.788Zm-10.12,3.576H4.266l12.377,5.959H1.788ZM26.52,119.9H2.682A.9.9,0,0,1,1.788,119v-.894H27.414V119A.9.9,0,0,1,26.52,119.9Z" transform="translate(0 -105)" fill="#fff"/>
</svg>
